<?xml version="1.0" standalone="no"?>
<!DOCTYPE svg PUBLIC "-//W3C//DTD SVG 20010904//EN"
 "http://www.w3.org/TR/2001/REC-SVG-20010904/DTD/svg10.dtd">
<svg version="1.0" xmlns="http://www.w3.org/2000/svg"
 width="1280.000000pt" height="574.000000pt" viewBox="0 0 1280.000000 574.000000"
 preserveAspectRatio="xMidYMid meet">
<metadata>
Created by potrace 1.15, written by Peter Selinger 2001-2017
</metadata>
<g transform="translate(0.000000,574.000000) scale(0.100000,-0.100000)"
fill="#000000" stroke="none">
<path d="M3614 5731 c-134 -32 -269 -195 -323 -391 -36 -129 -24 -179 39 -166
50 9 291 123 358 169 115 77 167 190 131 284 -29 76 -122 123 -205 104z"/>
<path d="M3514 5220 c-63 -14 -130 -69 -173 -140 -26 -43 -26 -56 -3 -62 30
-8 174 10 219 27 78 30 106 98 61 148 -27 29 -60 37 -104 27z"/>
<path d="M3148 4916 c-183 -49 -236 -254 -154 -592 31 -126 66 -218 118 -314
78 -142 201 -314 297 -415 229 -241 317 -378 373 -584 18 -64 22 -105 22 -266
1 -183 0 -193 -27 -270 -62 -177 -162 -352 -290 -503 -90 -108 -302 -292 -337
-292 -47 0 -174 41 -268 86 -129 62 -227 156 -282 268 -63 129 -72 194 -80
581 -9 371 -12 394 -71 506 -46 87 -165 204 -249 246 -112 55 -218 78 -350 76
-63 -1 -149 -8 -190 -15 l-75 -14 -17 -89 c-42 -223 -52 -312 -51 -480 2 -466
152 -1067 361 -1440 184 -329 394 -614 637 -864 135 -139 231 -220 373 -314
353 -236 586 -283 781 -157 123 80 214 189 339 408 168 294 273 633 336 1092
51 365 56 528 26 786 -35 302 -90 528 -195 794 -97 246 -178 367 -352 527
-127 117 -167 185 -168 284 0 64 2 69 58 152 31 47 64 105 72 128 51 143 -45
305 -196 333 -46 8 -114 -13 -173 -53 -54 -38 -55 -35 -21 79 30 99 31 170 6
226 -24 53 -60 80 -122 93 -61 13 -71 13 -131 -3z"/>
<path d="M11738 3050 c-232 -21 -417 -107 -564 -262 -112 -118 -165 -239 -183
-413 -24 -232 38 -429 182 -577 104 -106 187 -150 574 -299 114 -44 229 -92
256 -107 164 -89 210 -215 116 -317 -124 -135 -396 -122 -495 24 -13 20 -30
62 -36 93 l-12 58 -304 0 -305 0 6 -87 c23 -334 248 -598 582 -683 114 -29
284 -41 416 -29 178 15 280 43 424 118 71 36 109 65 181 136 105 104 150 177
190 310 24 78 27 108 28 230 1 157 -12 221 -66 334 -49 101 -174 220 -307 293
-96 52 -169 83 -517 218 -139 54 -237 113 -279 170 -19 26 -25 46 -25 86 0
176 259 274 427 161 57 -38 100 -116 110 -194 l6 -53 303 0 304 0 -6 78 c-36
445 -319 691 -824 715 -52 2 -134 1 -182 -3z"/>
<path d="M0 1755 l0 -1255 720 0 720 0 0 265 0 265 -385 0 -385 0 0 240 0 240
385 0 385 0 0 255 0 255 -385 0 -384 0 -3 235 -3 235 388 0 387 0 0 260 0 260
-720 0 -720 0 0 -1255z"/>
<path d="M4490 1755 l0 -1255 720 0 720 0 0 265 0 265 -387 2 -388 3 -3 238
-2 237 390 0 390 0 0 255 0 255 -390 0 -390 0 0 235 0 235 390 0 390 0 0 260
0 260 -720 0 -720 0 0 -1255z"/>
<path d="M6440 1755 l0 -1255 330 0 330 0 2 751 3 750 481 -748 481 -748 326
-3 327 -2 0 1255 0 1255 -322 -2 -323 -3 -5 -769 -5 -769 -474 772 -474 771
-338 0 -339 0 0 -1255z"/>
<path d="M9007 3003 c-4 -3 -7 -125 -7 -270 l0 -263 285 0 285 0 0 -985 0
-985 330 0 330 0 0 985 0 985 285 0 285 0 -2 268 -3 267 -891 3 c-490 1 -894
-1 -897 -5z"/>
</g>
</svg>
